<?xml version="1.0" encoding="UTF-8"?>
<!-- Generated by Pixelmator Pro 3.3.6 -->
<svg width="169" height="171" viewBox="0 0 169 171" xmlns="http://www.w3.org/2000/svg">
    <g id="Agrupar">
        <path id="Trazado" fill="#a24689" stroke="none" d="M 84.199997 8.699997 C 94.300003 8.699997 103.900002 10.699997 112.900002 14.699997 C 121.900002 18.699997 129.800003 24.199997 136.600006 31 C 143.399994 37.800003 148.800003 45.800003 152.899994 54.900002 C 156.899994 64 158.899994 73.699997 158.899994 84 C 158.899994 94.300003 156.899994 104 153 113 C 149.100006 122 143.699997 129.899994 137 136.699997 C 130.300003 143.5 122.400002 148.899994 113.300003 152.800003 C 104.199997 156.699997 94.400002 158.699997 83.800003 158.699997 C 73.5 158.699997 63.700001 156.800003 54.700001 153.100006 C 45.599998 149.399994 37.599998 144.199997 30.799999 137.399994 C 24 130.699997 18.6 122.800003 14.7 113.699997 C 10.8 104.600006 8.8 94.699997 8.8 83.899994 C 8.8 73.599998 10.7 63.900002 14.5 54.900002 C 18.299999 45.900002 23.6 38.100006 30.5 31.300003 C 37.299999 24.600006 45.299999 19.199997 54.5 15.199997 C 63.799999 11.399994 73.699997 9.100006 84.199997 8.699997 Z M 83.900002 39.399994 C 77.900002 39.399994 72.199997 40.5 66.699997 42.800003 C 61.200001 45.099998 56.5 48.199997 52.400002 52.300003 C 48.400002 56.300003 45.200001 61 42.799999 66.400002 C 40.400002 71.800003 39.200001 77.699997 39.200001 84.100006 C 39.200001 90.100006 40.400002 95.800003 42.799999 101.300003 C 45.200001 106.800003 48.400002 111.600006 52.400002 115.699997 C 56.400002 119.800003 61.200001 123.100006 66.699997 125.5 C 72.199997 127.899994 77.900002 129.100006 83.900002 129.100006 C 89.900002 129.100006 95.599998 127.899994 101.099998 125.5 C 106.599998 123.100006 111.300003 119.899994 115.400002 115.699997 C 119.400002 111.600006 122.599998 106.800003 125 101.300003 C 127.400002 95.800003 128.600006 90.100006 128.600006 84.100006 C 128 71.900002 123.599998 61.599998 115.599998 53.199997 C 107.5 44.800003 97.099998 40.199997 84.300003 39.399994 L 83.900002 39.399994 L 83.900002 39.399994 Z"/>
    </g>
</svg>
